<svg xmlns="http://www.w3.org/2000/svg" width="16" height="16" viewBox="0 0 16 16">
    <g fill="none" fill-rule="evenodd">
        <path d="M0 0h16v16H0z"/>
        <path fill="#7D97B3" fill-rule="nonzero" d="M15.597.391C15.327.123 14.99 0 14.599 0c-.407 0-.834.128-1.293.382-.452.25-.858.54-1.214.852h-.018c-.069.06-.286.27-.659.643-.373.374-.685.687-.937.956L2.938.678a.449.449 0 0 0-.46.121L1.222 2.051a.45.45 0 0 0-.13.408.444.444 0 0 0 .251.357L7.33 5.979 4.223 9.1l-2.508.087a.448.448 0 0 0-.32.14l-1.241 1.25a.469.469 0 0 0-.148.427c.043.182.139.304.304.356l3.062 1.278 1.276 3.068a.476.476 0 0 0 .355.295h.087c.13 0 .243-.043.338-.14l1.241-1.242a.477.477 0 0 0 .148-.321l.086-2.512 3.107-3.112 3.166 5.997c.078.148.192.23.356.252a.46.46 0 0 0 .408-.147l1.24-1.243c.13-.13.182-.28.13-.46l-2.15-7.553 1.56-1.565c.27-.27.568-.632.868-1.182.151-.276.263-.547.339-.817.15-.53.085-1.154-.33-1.564zm-1.553 2.885l-1.753 1.765c-.147.148-.178.291-.13.46l2.135 7.553-.59.582-3.159-5.98c-.077-.147-.19-.234-.338-.251a.436.436 0 0 0-.425.13l-3.696 3.702a.588.588 0 0 0-.148.313l-.086 2.512-.599.608-1.084-2.58a.409.409 0 0 0-.252-.27l-2.577-1.07.607-.599 2.5-.096c.147-.026.25-.07.32-.139l3.696-3.702a.438.438 0 0 0 .13-.426c-.017-.148-.104-.26-.251-.339l-5.97-3.172.582-.582 7.54 2.138c.168.048.312.017.46-.13l.745-.748.686-.678.295-.296.035-.017c.728-.626 1.44-1 1.882-1 .156 0 .26.035.304.105.494.487-.552 1.898-.859 2.207z"/>
    </g>
</svg>
