<svg xmlns="http://www.w3.org/2000/svg" width="13" height="16" viewBox="0 0 13 16">
    <g fill="none" fill-rule="evenodd">
        <path d="M-2 0h16v16H-2z"/>
        <path fill="#7D97B3" fill-rule="nonzero" d="M12.987 13.745c-.004-.035-.008-.068-.02-.101-.011-.036-.03-.065-.049-.096-.011-.018-.015-.039-.029-.056-.006-.007-.013-.01-.019-.016-.023-.026-.051-.046-.08-.067-.024-.019-.047-.038-.074-.051-.026-.013-.054-.017-.082-.025-.035-.01-.069-.02-.106-.022-.007 0-.014-.005-.023-.005-4.002 0-7.513-3.137-7.513-6.714 0-2.293 1.168-4.41 3.125-5.663.01-.007.015-.018.025-.025A.483.483 0 0 0 8.337.57c.004-.022.013-.042.013-.065 0-.017-.007-.031-.009-.047a.466.466 0 0 0-.017-.085.461.461 0 0 0-.038-.103C8.28.257 8.28.244 8.273.233 8.263.218 8.248.21 8.238.195a.502.502 0 0 0-.152-.13.472.472 0 0 0-.19-.057C7.882.007 7.87 0 7.856 0 3.523 0 0 3.589 0 8s3.524 8 7.855 8a7.78 7.78 0 0 0 4.963-1.8c.007-.005.01-.012.015-.018.026-.024.046-.053.068-.084.017-.024.036-.046.048-.073.013-.027.018-.057.026-.087.008-.035.018-.067.02-.103 0-.009.005-.016.005-.025 0-.023-.01-.043-.013-.066zM.99 8c0-3.267 2.215-6.01 5.193-6.773a7.682 7.682 0 0 0-2.18 5.365c0 3.665 3.155 6.922 7.046 7.59a6.78 6.78 0 0 1-3.194.81C4.07 14.992.99 11.854.99 8z"/>
    </g>
</svg>
