<svg xmlns="http://www.w3.org/2000/svg" width="11" height="16" viewBox="0 0 11 16">
    <g fill="none" fill-rule="evenodd">
        <path d="M-2 0h16v16H-2z"/>
        <path fill="#7D97B3" fill-rule="nonzero" d="M5.5 0C2.467 0 0 2.523 0 5.625c0 1.048.284 2.07.821 2.958l4.366 7.195a.456.456 0 0 0 .39.222h.003a.456.456 0 0 0 .39-.228l4.254-7.265A5.715 5.715 0 0 0 11 5.625C11 2.523 8.533 0 5.5 0zm3.938 8.026L5.569 14.63 1.6 8.089a4.76 4.76 0 0 1-.69-2.464C.91 3.04 2.974.931 5.5.931c2.527 0 4.586 2.11 4.586 4.694 0 .848-.226 1.678-.648 2.4zM5.5 2.813c-1.516 0-2.75 1.261-2.75 2.812 0 1.54 1.214 2.813 2.75 2.813 1.555 0 2.75-1.289 2.75-2.813 0-1.55-1.234-2.813-2.75-2.813zm0 4.693c-1.016 0-1.84-.845-1.84-1.881 0-1.034.83-1.881 1.84-1.881 1.01 0 1.836.847 1.836 1.881 0 1.021-.804 1.881-1.836 1.881z"/>
    </g>
</svg>
