<svg xmlns="http://www.w3.org/2000/svg" width="16" height="16" viewBox="0 0 16 16">
    <g fill="#FFF" fill-rule="nonzero" opacity=".7">
        <path d="M.643 1.6a.555.555 0 0 0-.56.56c0 .315.245.561.56.561h11.104a2.121 2.121 0 0 0 4.17-.547A2.11 2.11 0 0 0 13.799.068c-.97 0-1.791.657-2.037 1.546H.643V1.6zm13.155-.438c.547 0 .999.452.999.999 0 .547-.452.998-.999.998-.547 0-.998-.451-.998-.998 0-.547.451-.999.998-.999zM15.918 7.986a.555.555 0 0 0-.56-.56H9.585a2.117 2.117 0 0 0-4.075 0H.63a.555.555 0 0 0-.56.56c0 .315.246.561.56.561h4.882a2.129 2.129 0 0 0 2.051 1.573c.985 0 1.806-.67 2.052-1.573h5.743c.315 0 .56-.246.56-.56zm-8.37 1.026c-.546 0-.998-.451-.998-.998 0-.547.452-.999.999-.999.547 0 .998.452.998.999a.995.995 0 0 1-.998.998zM4.24 14.373h11.117c.315 0 .56-.247.56-.561a.555.555 0 0 0-.56-.56H4.24a2.113 2.113 0 0 0-2.037-1.56c-1.163 0-2.12.944-2.12 2.12 0 1.176.944 2.12 2.12 2.12.97.013 1.791-.657 2.037-1.56zm-3.037-.547c0-.547.452-.999.999-.999.547 0 .998.452.998.999 0 .547-.451.998-.998.998-.547 0-.999-.451-.999-.998z"/>
    </g>
</svg>
